<svg xmlns="http://www.w3.org/2000/svg" viewBox="0 0 464.546 480.656"><g transform="translate(816.38367,769.7666)"><path fill="currentColor" d="m -587.32,-289.15 c -0.65,-0.05 -3.33,-0.22 -5.95,-0.38 -13.81,-0.83 -35.53,-5.54 -50,-10.84 -19.63,-7.18 -43.27,-22.4 -60.86,-39.16 -4.65,-4.44 -6.45,-5.63 -10.32,-6.87 -1.29,-0.41 -3.31,-1.6 -7.12,-4.17 -9.08,-6.14 -12.82,-7.81 -15.55,-6.95 -3.15,0.99 -3.35,0.78 -2.06,-2.24 1.47,-3.44 -0.33,-6.46 -2.38,-3.99 -0.67,0.8 -1.51,0.51 -1.69,-0.58 -0.24,-1.45 -0.21,-2.92 0.08,-3.1 0.68,-0.42 1.13,-2.75 0.69,-3.64 -1.17,-2.44 -8.71,-8.82 -11.35,-9.6 -7.18,-2.13 -12.26,6.12 -6.23,10.11 2.34,1.55 0.07,2.68 -2.59,1.29 -3.15,-1.65 -4.18,-4.34 -3.56,-9.32 0.48,-3.84 4.36,-7.65 8.74,-8.59 3.26,-0.7 2.69,-2.31 -2.75,-7.82 -8.03,-8.12 -14.8,-10.51 -21.77,-7.7 -5.91,2.39 -5.18,-4.36 1.19,-11.02 1.37,-1.43 2.72,-2.97 2.99,-3.42 2.4,-3.95 -10.56,-5.01 -14.43,-1.18 -2.62,2.6 -3.74,1.71 -2.95,-2.32 0.79,-4 2.88,-7.55 5.84,-9.91 3.47,-2.76 0.02,-4.02 -6.5,-2.36 -4.22,1.07 -4.19,-0.03 0.14,-5.19 2.24,-2.67 2.73,-3.52 2.13,-3.74 -1.63,-0.63 -6.02,1.31 -8.47,3.74 -4.65,4.62 -5.34,10.3 -2.21,18.3 1.43,3.67 0.51,4.02 -1.56,0.6 -5.1,-8.42 -2.33,-19.72 6.11,-24.96 12.1,-7.5 32.07,2.61 38.17,19.35 1.84,5.05 -0.82,3.14 -6.18,-4.42 -4.34,-6.14 -12.4,-10.63 -17.69,-9.87 -3.26,0.47 -3.31,1.15 -0.22,2.75 1.01,0.52 2.55,1.39 3.42,1.93 0.87,0.54 2.6,1.29 3.84,1.67 4,1.22 6.72,3.26 8.21,6.18 1.24,2.43 0.73,2.57 -2.96,0.79 -5.48,-2.64 -9.63,-3.27 -12.36,-1.88 -1.52,0.77 -1.37,0.88 3.03,2.15 6.66,1.93 11.23,4.52 18.5,10.48 5.73,4.7 8.33,8.27 8.33,11.44 0,1.27 -0.51,0.99 -4.27,-2.33 -5.17,-4.56 -7.47,-5.57 -13.25,-5.78 -7.23,-0.27 -7.13,1.39 0.22,3.64 5.96,1.83 9.48,4.18 15.07,10.05 1.59,1.67 4.33,4.53 6.08,6.35 1.75,1.82 3.77,4.14 4.47,5.16 0.71,1.02 1.82,2.54 2.47,3.39 0.65,0.85 2.59,3.62 4.32,6.16 5.3,7.8 12.07,15.76 14.48,17.02 1.63,0.85 0.69,-1.04 -2.86,-5.79 -3.59,-4.79 -4.15,-5.6 -8.56,-12.35 -1.82,-2.78 -3.78,-6 -4.36,-7.14 -0.58,-1.15 -1.73,-3.27 -2.56,-4.73 -3.29,-5.75 -8.05,-17.48 -10.58,-26.02 -1.87,-6.31 -1.93,-6.48 -4.38,-12.22 -7.57,-17.73 -14.8,-23.87 -25.65,-21.82 -3.35,0.63 -3.7,0.35 -2.47,-2 0.89,-1.72 0.89,-1.72 -3.16,-2.88 -7.1,-2.02 -12.84,-5.3 -17.53,-10.02 -5.62,-5.65 -5.94,-8.4 -0.78,-6.77 1.56,0.49 7.07,-0.69 8.52,-1.83 2.41,-1.89 -3.88,-9.1 -8.93,-10.22 -1.65,-0.37 -4.88,-0.82 -5.82,-0.82 -1.74,0 -1.66,-1.68 0.14,-2.92 0.64,-0.44 1.54,-1.27 2,-1.84 2.22,-2.76 5.97,-3.75 14.31,-3.81 5.4,-0.04 5.29,0.04 4.17,-2.71 -1.85,-4.56 -8.39,-9.62 -12.42,-9.62 -2.77,0 -3.26,-1.09 -0.97,-2.13 1.42,-0.64 3.45,-0.65 6.07,0 6.99,1.72 11.9,7.99 18.58,23.7 3.23,7.61 5.23,11.61 7.49,15 1.77,2.65 1.77,2.65 0.32,3.92 -1.44,1.26 -1.44,1.26 -0.2,3.73 1.72,3.42 1.33,3.46 -1.78,0.2 -4.48,-4.7 -4.51,-4.72 -8.52,-6.35 -5.25,-2.13 -11.5,-1.81 -16.55,0.87 -3.12,1.65 6.51,7.6 14.09,8.7 10.44,1.51 17.13,4.74 25.4,12.27 1.55,1.41 1.57,1.21 0.67,-6.1 -0.81,-6.52 -1.25,-8.16 -3.33,-12.3 -0.86,-1.71 -2.52,-5.29 -3.7,-7.95 -4.2,-9.51 -8.99,-17.33 -16.05,-26.19 -9.91,-12.44 -15.31,-28.8 -13.57,-41.09 0.65,-4.62 3.28,-12.69 4.92,-15.11 1.59,-2.34 4.59,-5.26 4.59,-4.46 0,0.33 -1.08,2.23 -1.67,2.93 -4.63,5.51 -6.6,22.48 -3.65,31.48 2.7,8.24 3.75,8.1 4.25,-0.55 0.54,-9.26 1.84,-13.02 9.01,-25.93 0.24,-0.44 0.9,-1.63 1.47,-2.65 0.56,-1.02 1.4,-2.45 1.86,-3.17 6.2,-9.78 6.89,-20.41 1.83,-28.37 -2.39,-3.77 -1.85,-4.93 0.94,-2.01 2.85,2.99 5.36,7.8 6.3,12.1 0.9,4.1 1.81,1.6 1.91,-5.27 0.05,-3.47 0.83,-4.73 1.51,-2.45 1.33,4.44 1.33,4.43 1.02,15.01 -0.16,5.61 8.37,-2.28 11.43,-10.58 1.4,-3.79 1.69,-5.68 1.74,-11.38 0.08,-9.14 1.34,-4.9 1.64,5.52 0.28,9.54 -0.48,11.09 -10.05,20.76 -8.31,8.39 -9.98,10.43 -7.35,8.96 1.18,-0.66 2.47,-0.75 2.92,-0.19 0.52,0.63 -1.45,2.5 -4.21,3.99 -15.22,8.25 -21.35,25.12 -15.49,42.64 2.66,7.94 7.62,14.79 5.57,7.69 -3.66,-12.7 -3.59,-23.24 0.22,-31.49 1.73,-3.75 2.76,-1.32 1.48,3.49 -1.18,4.42 -0.6,4.69 1.86,0.87 3.16,-4.91 4.3,-6.51 7.39,-10.4 1.69,-2.12 4.6,-5.85 6.48,-8.29 3.39,-4.4 4.36,-5.4 4.92,-5.05 0.32,0.2 0.27,0.51 -0.58,4.32 -1.62,7.21 4.79,1.61 8.51,-7.43 1.64,-3.98 1.76,-3.89 1.92,1.41 0.21,6.88 1.03,8.78 3.42,7.94 1.36,-0.48 1.53,-0.08 1.94,4.51 0.47,5.34 0.51,5.49 3.31,12.6 4.59,11.65 4.53,10 -0.39,-9.98 -1.95,-7.92 -3.19,-20.69 -2.15,-22.11 0.57,-0.78 0.68,-0.46 1.21,3.5 0.65,4.79 0.73,5.16 3.36,14.78 1.23,4.51 2.58,9.93 3,12.04 1,5.1 1.45,7.12 2.12,9.66 3.44,12.97 -3.38,27.59 -15.76,33.8 -4.39,2.2 -9.22,5.74 -10.06,7.36 -1.03,2 0.42,1.81 2.73,-0.36 0.98,-0.91 4.57,-3.52 7.99,-5.8 16.88,-11.22 19.66,-16.12 18.72,-32.95 -0.24,-4.21 1.09,-7.03 2.08,-4.44 1.09,2.85 1.44,-4.05 0.38,-7.6 -0.27,-0.92 -0.88,-2.97 -1.34,-4.57 -0.97,-3.33 -2.32,-7.58 -5.92,-18.65 -1.4,-4.29 -2.65,-8.28 -2.79,-8.86 -0.44,-1.86 -1.59,-9.42 -1.88,-12.44 -0.67,-6.9 -1.15,-8.01 -2.21,-5.14 -0.25,0.67 -1.23,2.57 -2.2,4.23 -0.96,1.66 -2.04,3.54 -2.39,4.18 -2.56,4.67 -6.25,8.43 -9.43,9.59 -2.05,0.75 -1.92,0.37 1.65,-4.66 8.98,-12.67 10.72,-18.67 8.93,-30.82 -1.72,-11.67 -5.69,-16.98 -10.72,-14.35 -2.02,1.06 -2.42,1.08 -2.41,0.13 0,-2.7 5.25,-5.09 7.77,-3.53 4.45,2.75 7.8,9.38 9.44,18.68 1.07,6.08 1.89,6.72 3.83,2.95 1.27,-2.47 3.54,-4.6 7.1,-6.65 6.58,-3.8 7.11,-3.29 1.95,1.9 -5.91,5.95 -7.57,9.76 -7.66,17.55 -0.11,9.11 0.58,10.24 3.85,6.35 4.07,-4.83 7.11,-5.99 10.77,-4.1 1.71,0.89 0.42,1.88 -1.87,1.45 -6,-1.14 -9.66,11.87 -6.45,22.89 0.67,2.3 1.56,5.65 2.4,9.06 0.54,2.18 0.88,2.1 0.88,-0.21 0,-11.08 5.61,-21.41 12.88,-23.7 1.51,-0.47 1.52,-0.49 1.15,-2.09 -0.87,-3.79 -1.45,-12.03 -1.08,-15.35 1.07,-9.66 4.65,-16.2 14.68,-26.89 4.87,-5.19 4.59,-4.34 3.05,-9.1 -3.15,-9.71 -3.5,-19.08 -0.98,-26.33 3.88,-11.18 7.45,-15.96 26.47,-35.49 3.89,-3.99 7.88,-8.33 8.86,-9.64 5.1,-6.78 6.6,-9.04 7.88,-11.89 1.32,-2.94 4.94,-12.4 6.74,-17.59 4.04,-11.64 6.77,-16.56 13.76,-24.73 1.24,-1.45 2.49,-2.92 2.79,-3.27 1.58,-1.87 9.54,-8.22 12.17,-9.7 0.73,-0.41 2.22,-1.26 3.31,-1.88 2.31,-1.32 6.31,-3.13 9.83,-4.44 11.38,-4.23 25.46,-3.66 32.4,1.3 1.73,1.24 4.7,2.14 7.78,2.37 9.33,0.69 18.95,7.84 26.5,19.72 7.17,11.28 10.52,20.52 12.8,35.32 0.94,6.08 2.73,13.53 3.77,15.61 0.78,1.57 5.18,8.17 6.7,10.05 13.01,16.08 15.75,22.32 15.91,36.15 0.05,4.73 0.1,5.14 0.61,5.77 4.14,5.06 8.91,14.67 9.77,19.7 0.78,4.55 -0.07,14.19 -1.26,14.19 -0.12,0 -0.14,0.12 -0.06,0.26 0.09,0.15 -0.01,0.19 -0.25,0.1 -0.23,-0.09 -0.41,-0.47 -0.42,-0.86 -0.09,-6.41 -1.9,-16.32 -3.6,-19.7 -1.59,-3.16 -5.65,-8.38 -6.51,-8.38 -3.34,0 -4.96,7.34 -2.97,13.49 3.31,10.25 3.21,15.8 -0.44,24.58 -0.9,2.18 -0.03,3.07 4.41,4.52 1.01,0.33 3.79,1.5 6.61,2.78 0.73,0.33 2.81,1.28 4.63,2.11 12.56,5.72 15.35,7.91 17.34,13.6 0.93,2.65 1.84,13.98 1.77,21.99 -0.01,1.53 -0.05,5.34 -0.09,8.47 -0.07,6.02 -0.09,5.79 1.89,19.98 0.43,3.06 0.96,7.1 1.18,9 1.19,10.11 2.06,17.89 2.4,21.43 0.21,2.18 0.49,5.04 0.63,6.35 0.14,1.31 0.45,4.35 0.69,6.75 0.61,6.1 0.53,5.86 1.37,4.6 9.97,-15.04 33.97,-5.75 42.96,16.63 0.77,1.9 1.15,1.96 0.91,0.13 -1.34,-10.31 -6.46,-17.04 -18.47,-24.24 -11.19,-6.71 -16.89,-14.35 -17.33,-23.21 -0.24,-4.9 1.28,-4.72 3.74,0.42 3.01,6.29 8.42,12.44 14.59,16.58 7.32,4.91 9.15,6.3 11.83,8.94 7.76,7.66 9.93,14.45 10.28,32.17 0.01,0.65 0.09,1.01 0.16,0.79 0.08,-0.22 0.42,-1.11 0.75,-1.98 0.79,-2.03 2.63,-14.72 2.42,-16.67 -0.72,-6.63 -8.15,-15.52 -16.19,-19.34 -4.83,-2.3 -12.89,-9.4 -16.18,-14.26 -2.1,-3.1 -2.41,-3.74 -4.76,-9.75 -2.23,-5.72 -2.08,-4.86 -3.27,-19.22 -1.5,-18.16 -5.8,-25.56 -14.51,-25.04 -3.44,0.21 -4.12,-0.14 -3.34,-1.69 0.61,-1.22 5.9,-2.57 8.12,-2.07 3.03,0.68 6.3,3.59 9.61,8.56 2.82,4.24 3.43,4.09 3.73,-0.9 0.42,-6.87 -1.7,-12.86 -6.2,-17.52 -3.36,-3.48 -3.26,-4.27 0.31,-2.58 0.57,0.27 1.37,0.49 1.77,0.49 2.66,0 6.58,8.93 7.38,16.82 0.49,4.86 0.64,5.02 1.99,2.17 5.67,-11.96 3.64,-29.42 -3.36,-28.93 -3.57,0.25 -3.32,-0.99 0.4,-1.95 2.3,-0.59 2.99,-0.47 3.72,0.65 0.26,0.39 0.85,0.87 1.33,1.07 1.03,0.43 2.31,1.83 3.09,3.37 0.83,1.65 1.03,1.85 1.48,1.47 2.15,-1.79 2.21,-13.09 0.09,-17.62 -1.59,-3.4 -3.33,-5.56 -6.82,-8.46 -1.22,-1.02 -1.49,-1.93 -0.57,-1.93 0.76,0 1.98,0.54 5.79,2.57 1.56,0.83 3.3,2.87 5.2,6.09 1.53,2.59 1.83,2.15 3.56,-5.23 2.63,-11.2 8.29,-17.72 13.5,-15.54 1.24,0.52 2.81,2.48 2.44,3.05 -0.4,0.63 -0.94,0.72 -0.84,0.15 0.06,-0.38 -0.09,-0.5 -0.65,-0.52 -0.41,-0.01 -1.21,-0.18 -1.79,-0.37 -5.2,-1.71 -10.08,8.09 -10.07,20.19 0.01,9.61 2.11,15.13 9.15,24.06 3.42,4.33 3.39,5.29 -0.08,2.85 -4.98,-3.5 -8.34,-8.17 -11.56,-16.07 -1.34,-3.28 -1.52,-3.01 -2.23,3.24 -0.74,6.53 -2.98,15.91 -5.18,21.69 -6.93,18.16 -9.71,30.31 -6.84,29.88 1.21,-0.18 1.21,-0.18 0.98,2.43 -1.36,15.72 3.5,26.32 14.78,32.24 0.54,0.28 1.67,1.1 2.51,1.82 0.84,0.72 2.54,1.98 3.78,2.82 1.24,0.83 3.16,2.36 4.27,3.4 2.08,1.95 2.35,2.04 2.35,0.83 0,-1.96 -5.46,-6.41 -10.38,-8.47 -3.73,-1.56 -8.14,-6.73 -11.2,-13.14 -4.17,-8.74 -3.19,-20.82 3.33,-41.35 1.76,-5.56 2.75,-9.5 3.43,-13.76 0.79,-4.92 1.08,-5.09 1.17,-0.66 0.11,5.41 -0.54,9.49 -3.28,20.64 -3.69,14.98 -3.05,16 1.95,3.16 1.68,-4.32 1.76,-4.68 1.85,-8.19 0.09,-3.36 0.62,-4.53 1.93,-4.2 1.92,0.48 3.88,-5.08 3.41,-9.69 -0.17,-1.67 0.2,-2.66 0.58,-1.58 0.13,0.36 0.56,1.57 0.96,2.68 3.39,9.47 9.07,13.45 7.41,5.19 -0.74,-3.67 0.14,-3.17 4.54,2.56 1.45,1.88 3.63,4.68 4.85,6.22 1.22,1.54 2.77,3.63 3.43,4.65 0.66,1.02 1.69,2.52 2.29,3.34 0.6,0.82 1.22,1.83 1.38,2.25 0.82,2.21 0.98,2.56 1.32,2.9 1.01,1.01 1.5,-1.27 0.83,-3.88 -0.7,-2.74 0.41,-4.12 1.75,-2.16 3.92,5.74 3.68,19.2 -0.56,32.05 -1.42,4.31 -1.39,4.38 0.81,1.47 12.82,-17 7.64,-42.93 -10.31,-51.58 -3.67,-1.77 -3.99,-2.09 -2.59,-2.67 3.61,-1.49 3.8,-1.01 -3.02,-7.76 -8.8,-8.71 -9.94,-11 -10.23,-20.63 -0.21,-7.05 0.91,-12.74 1.3,-6.58 0.71,11.25 2.83,16.74 8.33,21.6 3.95,3.48 4.75,2.71 3.95,-3.79 -0.45,-3.66 0.73,-11.26 1.75,-11.26 0.67,0 0.8,0.62 0.93,4.69 0.19,5.51 0.93,6.45 2.1,2.66 0.63,-2.05 2.42,-5.83 3.79,-8.01 3.07,-4.89 4.5,-5.45 2.02,-0.79 -3.19,5.99 -3.72,13.61 -1.43,20.43 0.82,2.44 1.48,3.75 4.22,8.41 8.88,15.08 10.35,19.29 10.96,31.29 0.3,5.83 0.7,6.03 2.61,1.24 3.87,-9.73 3.14,-21.37 -2.03,-32.25 -1.83,-3.86 -1.91,-4.97 -0.23,-3.1 7.13,7.89 9.4,24.19 5.13,36.71 -2.31,6.77 -5.66,13.49 -9.17,18.4 -8.87,12.39 -10.77,15.31 -13.92,21.4 -2.18,4.21 -3.52,7.28 -4.7,10.8 -1.09,3.25 -1.83,4.69 -2.68,5.25 -1.47,0.96 -2.32,3.87 -3.41,11.6 -1.14,8.1 -1.11,8.2 1.73,5.77 8.17,-7.02 14.3,-10.46 21.17,-11.88 13.81,-2.84 19.62,-7.33 11.95,-9.23 -8.64,-2.14 -11.6,-1.11 -19.92,6.93 -3.7,3.57 -3.79,3.47 -1.66,-1.74 1.05,-2.58 1.02,-2.81 -0.41,-3.04 -1.43,-0.23 -1.52,-0.5 -0.62,-1.82 1.51,-2.23 7.74,-15.02 9.03,-18.55 6.17,-16.88 16.52,-25.58 24.45,-20.55 1.72,1.09 1.41,1.33 -1.77,1.33 -4.83,0 -7.52,1.51 -10.8,6.04 -3.09,4.27 -3.3,6.36 -0.61,6 5.14,-0.69 12.56,0.06 14.03,1.43 0.44,0.41 1.24,1 1.79,1.33 1.13,0.68 2.68,2.48 2.98,3.46 0.11,0.36 0.43,1.13 0.72,1.69 0.58,1.16 0.06,1.22 -2.72,0.33 -1.31,-0.42 -1.32,-0.41 -6.12,1.73 -1.48,0.66 -4.66,3.77 -5.94,5.79 -2.2,3.49 -0.96,4.48 6.68,5.39 0.45,0.05 1.61,-0.05 2.58,-0.23 2,-0.38 2.03,-0.37 2.03,0.79 0,4.34 -11.17,12.93 -21.17,16.28 -4.06,1.36 -4.19,1.46 -3.46,2.65 1.46,2.4 0.6,3.05 -2.73,2.06 -10.27,-3.07 -21.53,9.58 -27.94,31.39 -5.44,18.53 -11.51,32.21 -20.49,46.17 -3.94,6.12 -4.14,6.43 -8.43,12.39 -3.09,4.3 -3.28,4.7 -2.04,4.17 2.68,-1.13 7.8,-7.26 14.72,-17.63 5.73,-8.58 7.37,-10.81 10.88,-14.79 1.85,-2.1 3.76,-4.3 4.24,-4.89 6.55,-8.06 12.24,-12.25 19.19,-14.14 5.3,-1.44 4.79,-3.38 -0.88,-3.33 -5.95,0.05 -10.21,2.03 -13.9,6.46 -1.85,2.21 -2.43,2.59 -3.3,2.12 -2.61,-1.39 4.75,-10.3 13.88,-16.81 4.63,-3.3 8.44,-5.2 12.7,-6.35 3.22,-0.86 3.68,-1.2 2.62,-1.89 -2.2,-1.44 -7.84,-0.42 -12.54,2.28 -3.96,2.27 -4.43,2.12 -2.85,-0.88 1.6,-3.06 4.07,-5.16 7.61,-6.49 1.67,-0.63 3.62,-1.52 4.34,-1.97 0.71,-0.46 2.26,-1.31 3.43,-1.89 3.27,-1.62 2.64,-2.51 -1.8,-2.51 -5.75,0 -11.47,3.65 -15.96,10.17 -6.07,8.82 -7.48,9.87 -5.76,4.26 4.2,-13.72 20.26,-24.66 31.91,-21.74 12.2,3.06 17.73,19.66 9.65,28.94 -1.95,2.23 -3.26,2.36 -1.58,0.15 6.17,-8.08 3.45,-20.58 -5.37,-24.62 -1.63,-0.75 -3.25,-1.07 -3.25,-0.65 0,0.81 1.27,3.5 2.51,5.3 3.43,5 3.39,6.08 -0.15,4.63 -5.38,-2.2 -10.21,-0.06 -6.45,2.86 3.79,2.95 6.19,8.57 5.34,12.5 -0.45,2.09 -0.62,2.08 -2.97,-0.09 -3.45,-3.2 -8.18,-3.8 -13.19,-1.67 -1.15,0.49 -1.18,1.03 -0.18,3.1 0.49,1 0.82,1.39 2.75,3.24 1.37,1.31 3.6,5.47 3.6,6.71 0,0.6 0.2,1.9 0.43,2.89 0.72,3 0.16,3.2 -4.19,1.54 -8.31,-3.18 -16.12,1.03 -25.28,13.63 -1.15,1.59 -0.97,1.81 2.19,2.68 8.28,2.28 11.24,12.74 5.16,18.21 -3.54,3.18 -6.08,1.81 -2.92,-1.57 6.82,-7.29 -3.07,-14.42 -10.5,-7.58 -0.76,0.7 -2.28,2.09 -3.39,3.09 -3.43,3.1 -4.71,5.2 -3.92,6.41 0.56,0.86 1.71,5.4 1.52,6 -0.18,0.56 -1.1,0.48 -2.85,-0.27 -1.89,-0.81 -2.89,0.88 -2.15,3.64 0.48,1.79 0.51,3.34 0.07,3.51 -0.6,0.23 -2.14,-0.07 -3.01,-0.58 -0.85,-0.5 -0.86,-0.5 -2.4,0.13 -0.85,0.35 -1.68,0.64 -1.84,0.64 -0.44,0.01 -3.28,1.76 -4.05,2.51 -0.37,0.36 -1.1,0.82 -1.62,1.04 -0.52,0.22 -1.89,1.15 -3.04,2.07 -3.94,3.15 -6.16,4.48 -9.81,5.85 -1.57,0.59 -3.94,2.16 -5.21,3.46 -0.6,0.61 -2.16,2.11 -3.47,3.33 -1.31,1.22 -3.57,3.36 -5.03,4.76 -1.46,1.39 -3.72,3.42 -5.03,4.5 -1.31,1.08 -4.23,3.79 -6.48,6.02 -2.26,2.23 -5.17,4.83 -6.48,5.79 -6.11,4.45 -19.07,11.75 -26.86,15.13 -1.67,0.73 -4,1.77 -5.16,2.31 -14.76,6.89 -40.41,12.23 -59.66,12.43 -4.73,0.05 -9.13,0.04 -9.79,-0.01 z m 1.12,-6.93 c 3.05,-3.42 13.29,-24.7 20.72,-43.06 1.36,-3.35 3.02,-7.4 3.7,-9 1.88,-4.43 4.86,-13.32 5.57,-16.63 0.73,-3.4 1.16,-9.12 0.61,-8.25 -0.39,0.62 -3,6.61 -4.47,10.24 -2.72,6.73 -18.65,39.6 -22.35,46.12 -0.83,1.46 -2.73,4.85 -4.23,7.54 -1.5,2.69 -3.69,6.56 -4.87,8.6 -2.34,4.04 -2.43,4.3 -1.55,4.49 0.33,0.07 0.83,0.18 1.12,0.24 1.64,0.35 5.35,0.16 5.75,-0.29 z m -17.58,-2.25 c 1.31,-1.78 3.81,-5.72 5.66,-8.93 0.8,-1.38 1.87,-3.17 2.38,-3.97 0.51,-0.8 2.42,-4.13 4.24,-7.41 1.82,-3.27 3.7,-6.61 4.17,-7.41 1.42,-2.4 10.62,-20.72 12.69,-25.27 1.06,-2.33 2.43,-5.3 3.04,-6.61 0.62,-1.31 1.87,-4.11 2.78,-6.22 0.91,-2.11 2.59,-5.92 3.72,-8.47 1.14,-2.55 3.08,-6.95 4.32,-9.79 1.24,-2.84 2.93,-6.65 3.75,-8.47 2.58,-5.7 4.11,-11.5 3.26,-12.31 -0.19,-0.18 -1.54,-0.72 -3,-1.19 -1.46,-0.47 -5.5,-1.87 -9,-3.09 -14.4,-5.06 -15.9,-5.1 -25,-0.7 -5.12,2.48 -11.83,5.29 -14.68,6.15 -2.42,0.73 -2.36,0.68 -3.27,2.82 -0.43,1.01 -2.05,4.7 -3.6,8.19 -1.55,3.49 -4.23,9.62 -5.95,13.63 -5.25,12.19 -8.36,19.37 -9.13,21.03 -0.4,0.87 -1.3,2.9 -2,4.5 -1.73,3.97 -4.7,10.56 -6.21,13.76 -0.69,1.46 -1.4,3.06 -1.59,3.57 -0.69,1.9 -6.84,15.3 -9.44,20.57 -2.42,4.9 -2.95,4.17 5.21,7.11 12.41,4.47 23.92,7.7 34.13,9.58 2.35,0.43 2.42,0.41 3.52,-1.09 z m 0.35,-14.11 c -0.29,-0.37 -0.61,-1.24 -0.7,-1.92 -0.69,-5.16 -1.65,-5.48 -9.12,-3.07 -11.29,3.65 -20.13,-0.26 -16.04,-7.09 5.06,-8.44 22.25,-6.11 26.84,3.63 1.94,4.11 1.12,11.12 -0.98,8.45 z m 2.31,-12.09 c -2.1,-1.71 -8.69,-12.26 -10.05,-16.07 -1.56,-4.4 -0.47,-11.86 1.86,-12.74 5.35,-2.03 12.62,8.56 12.11,17.64 -0.28,4.92 -2.11,11.51 -3.2,11.51 -0.17,0 -0.5,-0.15 -0.72,-0.33 z m 5.07,-40.87 c -0.22,-0.08 -0.59,-0.32 -0.83,-0.53 -0.24,-0.21 -0.95,-0.42 -1.57,-0.46 -2.18,-0.16 -2.52,-1.53 -1.19,-4.8 2.25,-5.53 9.35,-9.81 15.37,-9.26 3.91,0.36 6.34,1.02 6.43,1.74 0.15,1.27 -0.36,1.51 -3.83,1.84 -6.64,0.62 -13.32,3.56 -13.32,5.87 0,1.86 7.02,1.12 11.69,-1.23 8.48,-4.26 12.13,-8.86 12.13,-15.28 0,-1.88 0.95,-2.89 1.5,-1.59 3.22,7.56 -1.36,15.43 -11.89,20.44 -5.55,2.64 -12.13,4.12 -14.48,3.25 z m 17.2,-18.18 c -7.56,-2.79 -11.65,-8.5 -11.33,-15.81 0.2,-4.62 4.48,-4.67 9.42,-0.12 4.92,4.54 7.18,16.78 3,16.29 -0.09,-0.01 -0.58,-0.17 -1.08,-0.36 z m 26.1,85.59 c 0.96,-0.59 0.92,-0.26 1.42,-11.53 0.39,-8.69 0.78,-15.5 1.06,-18.26 0.43,-4.24 0.05,-7.07 -0.64,-4.7 -0.61,2.12 -1.34,5.9 -2.79,14.49 -0.44,2.62 -1.21,6.91 -1.72,9.53 -1.18,6.13 -1.63,10.09 -1.2,10.6 0.47,0.57 2.84,0.49 3.86,-0.13 z m 19.88,-4.8 c 3.08,-1.23 2.95,-0.79 2.16,-7.13 -0.14,-1.09 -0.42,-4.48 -0.64,-7.54 -0.21,-3.06 -0.81,-10.68 -1.33,-16.93 -1.23,-14.87 -1.91,-23.46 -2.11,-26.72 -0.09,-1.46 -0.45,-6.1 -0.81,-10.32 -0.35,-4.22 -0.88,-11.3 -1.18,-15.74 -2.22,-33.28 -3.92,-44.08 -7.56,-48.01 -0.63,-0.68 -3.29,-1.03 -3.29,-0.44 0,0.13 0.41,1.82 0.91,3.77 2.21,8.61 3.31,18.96 4.38,41.51 0.15,3.13 0.51,8.9 0.81,12.83 0.92,12.35 1.57,20.79 1.84,23.94 0.14,1.67 0.38,5.13 0.54,7.67 0.26,4.43 2.08,27.01 2.64,32.81 0.15,1.53 0.39,4.54 0.53,6.7 0.34,5.1 0.09,4.81 3.12,3.6 z m 11.7,-4.14 c 1.24,-0.51 2.96,-1.25 3.84,-1.65 0.87,-0.4 1.89,-0.82 2.25,-0.93 0.36,-0.11 1.08,-0.42 1.59,-0.68 0.51,-0.27 2.41,-1.22 4.23,-2.12 1.82,-0.9 3.9,-1.97 4.63,-2.37 7.7,-4.27 9.89,-5.55 13.74,-8.05 10.5,-6.82 12.18,-8.02 15.88,-11.37 4.99,-4.53 12.37,-12.51 15.92,-17.23 1.12,-1.49 9.1,-16.77 9.1,-17.43 0,-0.08 0.67,-1.31 1.5,-2.73 2.7,-4.68 3.38,-6.68 3.8,-11.25 0.35,-3.85 0.37,-3.79 -3.58,-9.3 -1.12,-1.56 -1.13,-1.64 -0.14,-2.15 2.26,-1.17 5.8,1.41 7.81,5.7 1.32,2.82 1.58,2.74 2.71,-0.74 2.94,-9.13 -0.84,-17.56 -7.21,-16.09 -1.93,0.45 -2.94,0.21 -2.68,-0.61 1.4,-4.31 3.42,-5.81 6.86,-5.1 7.53,1.55 11.14,13.19 7.09,22.81 -0.98,2.33 -3.73,10.13 -3.65,10.37 0.26,0.77 4.31,-5.87 7.45,-12.21 0.91,-1.84 2.15,-4.15 2.76,-5.13 1.19,-1.93 3.51,-6.96 3.31,-7.17 -0.13,-0.13 1.19,-3.12 1.49,-3.35 0.89,-0.71 2.61,-5.35 1.8,-4.86 -0.26,0.16 -0.26,0.12 0,-0.21 0.18,-0.22 0.25,-0.48 0.15,-0.58 -0.1,-0.1 -0.03,-0.17 0.15,-0.17 0.64,0 4.66,-10.76 5.19,-13.9 0.1,-0.58 0.4,-1.76 0.67,-2.63 1.34,-4.35 0.74,-4.06 -0.81,0.4 -0.53,1.53 -1.71,4.8 -2.62,7.28 -0.91,2.47 -1.98,5.45 -2.4,6.61 -0.41,1.16 -1.53,4.02 -2.49,6.35 -0.96,2.33 -1.74,4.43 -1.74,4.68 0,0.24 -0.35,1.2 -0.78,2.12 -0.42,0.92 -1.15,2.62 -1.61,3.79 -0.96,2.43 -1.42,3.05 -1.91,2.57 -0.18,-0.18 -0.53,-0.32 -0.78,-0.32 -0.93,0 -0.97,-0.77 -0.18,-3.22 6.55,-20.36 -1.23,-40.73 -15.47,-40.51 -3.26,0.05 -3.4,-0.04 -2.82,-1.87 1.18,-3.74 6.36,-4.13 13.09,-0.98 4.06,1.9 6.96,5.41 9.9,11.98 2.06,4.61 2.71,3.87 2.88,-3.33 0.4,-16.98 -6.79,-27.04 -18.31,-25.6 -2.86,0.36 -3.34,0.2 -3.34,-1.1 0,-2.83 5.01,-4.61 10.82,-3.83 5.84,0.78 7.67,2.46 12.33,11.3 3.4,6.44 4.08,6.65 2.89,0.85 -4.09,-19.92 -24.98,-32.56 -36.59,-22.13 -2.98,2.68 -3.15,4.99 -1.36,18.37 0.28,2.11 0.76,6.16 1.06,9 0.3,2.84 0.77,7 1.05,9.26 1.16,9.51 0.55,13.36 -2.12,13.36 -2.34,0 -2.86,-1.6 -4.09,-12.57 -0.38,-3.42 -0.93,-7.83 -1.21,-9.79 -0.75,-5.17 -1.46,-10.49 -2.22,-16.67 -0.37,-2.98 -0.91,-7.15 -1.2,-9.26 -0.29,-2.11 -0.83,-6.52 -1.2,-9.79 -0.36,-3.27 -1.01,-8.57 -1.44,-11.77 -0.43,-3.2 -1.02,-8.14 -1.32,-10.98 -0.3,-2.84 -0.71,-6.23 -0.92,-7.54 -0.2,-1.31 -0.45,-3.16 -0.55,-4.1 -0.93,-9.03 -2.3,-19.37 -4.25,-32.09 -1.3,-8.44 -1.36,-8.55 -2.82,-5.02 -0.53,1.27 -2.02,4.58 -3.32,7.34 -1.3,2.76 -3.04,6.63 -3.88,8.59 -0.83,1.96 -1.91,4.4 -2.4,5.42 -0.49,1.02 -1.55,3.32 -2.36,5.1 -2.83,6.22 -4.33,9.48 -5.57,12.1 -0.69,1.46 -2.2,4.73 -3.36,7.28 -1.16,2.55 -2.42,5.29 -2.79,6.09 -3.43,7.41 -6.09,18.48 -6.85,28.51 -0.25,3.33 0.71,3.16 2.52,-0.43 2.55,-5.05 9.52,-14.32 10.78,-14.32 0.88,0 0.04,2.7 -2.48,7.96 -0.86,1.81 -2.09,4.42 -2.73,5.8 -0.64,1.38 -3.25,6.69 -5.8,11.79 -6.88,13.73 -6.58,12.64 -2.87,10.55 8.7,-4.91 11.52,-5.84 18.61,-6.11 3.56,-0.14 9.53,0.21 10.61,0.63 1.13,0.43 -0.93,1.2 -6.31,2.33 -7.09,1.49 -12.4,3.3 -16.81,5.73 -3.18,1.75 -3.03,1.85 3.09,2.12 14.1,0.61 23.09,6.95 27.81,19.61 1.38,3.7 -0.26,3 -4.82,-2.08 -4.92,-5.47 -9.74,-8.27 -18.28,-10.6 -1.79,-0.49 -14.09,-0.71 -15.62,-0.29 -1.08,0.3 -0.92,0.58 1.12,1.89 9.55,6.18 14.83,22.84 17.86,56.38 0.95,10.56 1.82,18.35 2.53,22.75 1.7,10.55 -1.22,5.78 -3.43,-5.61 -0.59,-3.03 -1.49,-7.65 -1.99,-10.27 -0.51,-2.62 -1.47,-7.44 -2.14,-10.72 -0.67,-3.27 -1.46,-7.26 -1.74,-8.86 -0.46,-2.59 -1.03,-5.25 -3.58,-16.8 -4.64,-21.07 -9.9,-25.95 -28.11,-26.14 -10.34,-0.11 -9.9,-0.21 -8.68,2.09 1.71,3.25 3.02,8.6 3.74,15.32 0.21,1.96 0.62,5.6 0.92,8.07 0.3,2.47 0.79,7.53 1.09,11.24 0.3,3.71 0.66,7.88 0.8,9.26 0.22,2.21 1.01,12.37 1.84,23.68 0.36,4.86 0.89,11.76 1.84,24.08 0.43,5.53 0.97,12.61 1.2,15.74 0.23,3.13 0.47,5.87 0.53,6.09 0.06,0.22 0.3,2.96 0.52,6.09 0.41,5.65 0.57,7.39 0.84,8.81 0.16,0.86 0.12,0.87 3.53,-0.53 z m 1.5,-17.45 c -0.61,-0.61 0.21,-4.84 1.39,-7.19 4.69,-9.29 12.21,-13.68 20.17,-11.79 2.42,0.58 2.44,0.63 1.65,4.16 -1.46,6.57 -5.1,9.4 -15.63,12.18 -2.6,0.68 -3.8,1.15 -4.84,1.87 -1.3,0.89 -2.33,1.19 -2.74,0.78 z m -2.45,-14.23 c -0.47,-1.88 1.1,-8.55 2.55,-10.86 4.68,-7.41 10.9,-7.42 9.53,-0.01 -0.88,4.75 -11.27,14.11 -12.08,10.87 z m -0.23,-32.46 c -3.91,-3.07 -3.78,-9.99 0.32,-17.49 2.02,-3.69 2.4,-4.83 2.6,-7.85 0.3,-4.45 1.24,-5.39 2.21,-2.23 1.4,4.52 0.87,7.24 -2.4,12.41 -3.25,5.15 -3.41,8.62 -0.57,12.79 1.76,2.59 0.23,4.26 -2.17,2.37 z m 6.6,-6.32 c -2.87,-0.44 -3.84,-1.15 -3.84,-2.81 0,-5.24 13.48,-7.48 16.6,-2.76 2.65,3.99 -4.05,6.92 -12.77,5.57 z m -9.38,-26.92 c -1.18,-1.18 -1.23,-1.85 -0.43,-5.85 2.45,-12.21 12.32,-17.42 11.46,-6.05 -0.47,6.18 -8.3,14.63 -11.03,11.9 z m -131.18,88.18 c 5.78,-7.18 20.31,-33.28 19.17,-34.43 -0.21,-0.21 -4.5,5.28 -7.12,9.14 -3.23,4.75 -11.63,16.12 -14.46,19.58 -3.74,4.57 -3.83,4.93 -1.57,6.39 2.06,1.33 2.41,1.28 3.98,-0.68 z m -25.87,-17.07 c 0.31,-4.55 0.59,-6.97 0.94,-8.11 0.27,-0.89 0.86,-4.64 1.31,-8.33 1.86,-15.37 2.76,-18.5 8.43,-29.2 1.7,-3.2 3.12,-5.96 3.17,-6.13 0.1,-0.37 -3.93,-3.21 -7.09,-5 -6.48,-3.67 -13.23,-9.48 -13.23,-11.38 0,-0.18 -0.18,-0.47 -0.4,-0.65 -0.22,-0.18 -0.34,-0.4 -0.27,-0.47 0.08,-0.07 -0.01,-0.32 -0.19,-0.54 -0.27,-0.34 -0.26,-0.37 0.07,-0.2 0.22,0.11 0.17,0.02 -0.12,-0.21 -0.28,-0.23 -0.38,-0.42 -0.21,-0.42 0.46,0 0.09,-0.72 -0.45,-0.86 -0.59,-0.15 -0.81,-1.63 -0.82,-5.46 -0.01,-2.1 -0.08,-2.69 -0.29,-2.33 -0.15,0.26 -0.28,1.01 -0.28,1.65 0,0.65 -0.11,1.24 -0.24,1.32 -0.14,0.09 -0.19,-0.7 -0.12,-1.92 0.06,-1.14 0.19,-3.55 0.28,-5.37 0.09,-1.82 0.33,-5.57 0.53,-8.33 1.48,-20.14 1.76,-24.74 1.8,-29.9 0.04,-5.15 -0.01,-5.96 -0.45,-7.01 -0.53,-1.29 -0.49,-12 0.09,-19.84 1.22,-16.64 1.42,-15.01 -2.42,-19.62 -6.84,-8.22 -8.28,-17.49 -4.46,-28.71 0.56,-1.63 0.95,-3.03 0.87,-3.11 -1.1,-1.1 -7.17,8.33 -8.42,13.1 -0.5,1.89 -0.88,7.57 -0.75,11.22 0.1,2.85 2.11,7.3 5,11.07 2.53,3.3 3.1,4.55 2.29,5.05 -0.77,0.48 -7.83,-4.21 -10.24,-6.79 -8.89,-9.55 -8.01,-30.14 1.7,-39.63 0.53,-0.51 1.31,-1.35 1.75,-1.85 3.34,-3.87 4.13,-4.66 5.44,-5.55 1.67,-1.14 3.74,-3.07 4.2,-3.92 0.44,-0.81 -0.02,-0.7 -0.9,0.23 -0.72,0.75 -0.88,0.79 -2.8,0.79 -9.83,0 -16.08,8.5 -17.19,23.4 -0.33,4.47 -1.73,15.25 -2.14,16.55 -4.2,13.2 -12.83,23.57 -24.77,29.78 -8.17,4.25 -13.09,8.87 -16.12,15.16 -1.3,2.69 -1.43,8.25 -0.33,13.79 0.62,3.13 1.31,6.19 1.94,8.6 0.38,1.46 1.16,4.67 1.72,7.14 2.61,11.42 5.09,19.75 8.25,27.78 1.26,3.2 6.47,13.62 7.7,15.42 0.43,0.62 1.03,1.69 1.33,2.38 1.63,3.69 5.7,10.42 7.48,12.36 1.34,1.47 1.15,0.39 -0.61,-3.49 -6.05,-13.33 -3.14,-24.56 6.81,-26.31 2.08,-0.37 2.59,-0.22 4.19,1.22 2.85,2.57 2.59,5.74 -0.38,4.5 -4.73,-1.98 -9.71,4.04 -8.82,10.67 0.98,7.37 1.82,8.77 3.31,5.5 1.42,-3.13 5.05,-5.98 7.59,-5.98 1.88,0 1.65,0.85 -1,3.74 -1.78,1.94 -1.84,2.09 -2.24,5.98 -0.49,4.74 -0.13,5.99 3.43,12.11 0.93,1.6 3.34,6.15 5.34,10.11 3.79,7.51 4.12,8.03 7.37,11.71 7.02,7.96 22.04,21.78 22.81,20.98 0.11,-0.11 0.39,-3.12 0.63,-6.69 z m -55.91,-57.39 c -0.18,-0.11 -0.72,-1.15 -1.21,-2.3 -0.49,-1.16 -1.26,-2.85 -1.72,-3.75 -0.46,-0.91 -1.08,-2.27 -1.38,-3.04 -0.3,-0.76 -0.71,-1.75 -0.9,-2.18 -1.68,-3.73 -2.9,-6.91 -3.85,-10.05 -0.62,-2.04 -1.89,-5.67 -2.83,-8.07 -0.94,-2.4 -1.87,-4.9 -2.06,-5.56 -5.84,-19.77 -5.79,-31.92 0.17,-41.84 3.67,-6.1 6.61,-8.56 22.17,-18.53 5.09,-3.26 10.01,-9.07 13.4,-15.83 2.01,-4 2.34,-4.18 3.14,-1.74 0.89,2.68 0.21,6.48 -1.74,9.81 -4.4,7.5 -7.43,10.34 -17.2,16.18 -12.23,7.31 -17.98,14.12 -18.86,22.39 -0.27,2.56 0.14,2.3 1.88,-1.2 8.28,-16.58 22.71,-24.38 35.92,-19.4 8.36,3.15 13.02,11.94 10.22,19.3 -1.38,3.63 -3.46,3.37 -2.84,-0.35 2.54,-15.29 -18.31,-19.61 -31.92,-6.63 -5.57,5.32 -10.5,14.57 -10.48,19.69 0.01,2.99 0.59,2.66 2.68,-1.52 3.69,-7.38 7.29,-11.35 10.94,-12.06 5.89,-1.14 11.08,-0.37 13.47,2.02 1.88,1.88 0.91,2.76 -2.45,2.21 -11.6,-1.88 -21.28,10.6 -20.29,26.17 0.39,6.08 0.93,6.34 3.46,1.65 5.2,-9.63 13.86,-14.79 20.58,-12.24 3.4,1.29 4.73,4.99 1.55,4.31 -14.4,-3.06 -24.94,19.02 -18.57,38.87 0.66,2.05 0.7,2.36 0.36,2.84 -0.5,0.71 -1.23,1.09 -1.63,0.84 z m 65.06,52.56 c 1.36,-1.73 5.87,-6.96 10.57,-12.23 16.73,-18.79 29.59,-36.38 29.32,-40.13 -0.1,-1.42 -1.13,-0.45 -6.23,5.88 -1.71,2.13 -4.49,5.4 -6.16,7.28 -1.68,1.87 -4.31,4.9 -5.85,6.71 -1.54,1.82 -4.27,4.92 -6.08,6.88 -2.7,2.94 -7.91,8.81 -13.23,14.91 -2.82,3.23 -4.11,5.9 -4.4,9.07 -0.29,3.28 0.35,3.78 2.06,1.61 z m 9.65,-53.18 c 0.67,-0.91 1.82,-2.67 2.56,-3.9 0.74,-1.24 3.05,-5 5.13,-8.36 6.52,-10.52 6.53,-10.61 1.29,-8.23 -1.31,0.59 -3.21,1.58 -4.23,2.19 -1.79,1.07 -1.87,1.09 -2.43,0.65 -0.32,-0.25 -1.14,-0.67 -1.82,-0.93 -2.14,-0.82 -1.15,-4.15 2.77,-9.3 2.99,-3.94 3.54,-5.42 2.2,-5.97 -0.4,-0.17 -2.33,-1.05 -4.3,-1.96 -1.96,-0.91 -4.29,-1.88 -5.16,-2.17 -2.33,-0.76 -5.39,-1.58 -6.75,-1.83 -0.78,-0.14 -1.19,-0.35 -1.19,-0.61 0,-1.05 7.94,-0.19 15.73,1.7 4.59,1.11 3.87,1.91 4.94,-5.53 2.87,-20.04 2.99,-17.89 -1.02,-18.49 -1.78,-0.27 -4.25,-0.65 -5.49,-0.86 -1.24,-0.21 -3.86,-0.62 -5.82,-0.91 -1.96,-0.3 -6.07,-1 -9.13,-1.57 -8.14,-1.51 -7.35,-1.62 -7.71,1.06 -1.63,12.05 -3.09,42.72 -2.24,47.23 0.94,4.98 7.71,11.69 18.26,18.1 2.83,1.71 2.93,1.71 4.4,-0.3 z m 39.33,-9.21 c 1.67,-0.34 6.78,-1.89 12.24,-3.73 3.61,-1.22 6.53,-2.42 19.69,-8.13 10.61,-4.6 12.97,-4.54 28.38,0.77 15.91,5.48 14.64,5.45 14.68,0.39 0.08,-9.99 -1.58,-18.8 -4.17,-22.16 -0.48,-0.63 -4.16,-1.18 -21.39,-3.22 -12.99,-1.54 -44.64,-2.65 -50.27,-1.76 -6.83,1.07 -13.1,4.29 -24.82,12.75 -4.36,3.15 -11.77,12.02 -11.03,13.22 0.46,0.74 3.41,-0.5 7.67,-3.22 2.56,-1.64 14.69,-8.57 15.92,-9.1 1.59,-0.68 4.63,-1.7 5.08,-1.7 0.79,0 -2.2,2.64 -4.62,4.08 -2.33,1.38 -8.44,5.83 -9.97,7.25 -1.48,1.38 -0.14,4.28 1.97,4.28 0.98,0 5.93,-2.01 13.63,-5.52 6.37,-2.91 5.1,0.07 -1.39,3.24 -6.69,3.28 -8.45,4.89 -6.81,6.24 2.06,1.71 2.74,1.69 9.46,-0.28 5.94,-1.74 8.63,-2.42 8.82,-2.22 0.61,0.62 -3.92,3.37 -7.63,4.63 -4.47,1.52 -4.94,1.88 -3.85,2.9 1.48,1.39 5.16,1.96 8.4,1.31 z m -21.98,-31.78 c 2.6,-1.89 2.85,-3.03 1.94,-8.64 -0.22,-1.36 -0.58,-3.86 -0.8,-5.56 -0.72,-5.55 -2.12,-9.77 -2.73,-8.21 -0.36,0.94 -2.17,13.92 -3.33,23.94 -0.21,1.79 0.76,1.49 4.92,-1.53 z m 93.34,-7.76 c 2.72,-1.32 4,-1.59 9.46,-1.95 5.05,-0.33 4.96,-0.24 9.82,-10.09 1.62,-3.27 3.67,-7.26 4.57,-8.86 4.32,-7.71 10.75,-20.54 16.7,-33.34 2.03,-4.37 3.93,-8.34 4.22,-8.83 0.29,-0.49 1.64,-3.35 2.99,-6.35 3.56,-7.87 8.15,-17.9 9.94,-21.72 0.85,-1.82 2.2,-4.8 2.99,-6.61 0.79,-1.82 2.13,-4.74 2.96,-6.48 3.92,-8.2 6.22,-13.13 6.22,-13.29 0,-0.1 1.63,-3.51 3.62,-7.57 5.47,-11.14 5.31,-11.62 -5.27,-16.34 -1.64,-0.73 -5.19,-2.38 -7.88,-3.66 -2.69,-1.28 -6.2,-2.89 -7.81,-3.59 -1.6,-0.69 -3.57,-1.55 -4.37,-1.91 -5.58,-2.5 -13.43,-5.23 -14.36,-5 -1.99,0.5 -13.58,20.74 -32.36,56.53 -1.72,3.27 -4.06,7.74 -5.21,9.92 -1.98,3.77 -5.62,11.12 -7.93,16.01 -2.67,5.64 -3.3,7.03 -5.16,11.38 -1.09,2.55 -2.34,5.46 -2.78,6.48 -0.44,1.02 -1.25,2.98 -1.79,4.37 -1.59,4.02 -5.98,14.83 -6.61,16.27 -0.32,0.73 -1.21,2.93 -1.98,4.89 -2.38,6.06 -4.55,11.44 -5.3,13.1 -0.39,0.87 -1.46,3.43 -2.37,5.69 -0.91,2.26 -2.03,4.87 -2.49,5.82 -1.57,3.28 -1.74,3.16 5.39,3.58 2.49,0.15 12.72,1.15 22.75,2.23 7.76,0.84 9.1,0.76 12.01,-0.65 z m 6.23,-9.78 c -0.89,-0.89 -0.82,-1.49 0.4,-3.7 1.84,-3.34 2.5,-8.27 1.4,-10.47 -0.96,-1.92 -4.47,-1.1 -9.72,2.26 -9.61,6.14 -19.46,2.66 -14.18,-5.01 6.97,-10.14 27.48,-5.67 28.02,6.1 0.24,5.23 -3.92,12.82 -5.92,10.82 z m 3.83,-22.35 c -2.66,-1.96 -7.47,-8.34 -9.13,-12.09 -3.12,-7.05 -1.53,-15.69 2.76,-15.05 7.78,1.15 11.64,10.76 9.54,23.75 -0.87,5.37 -0.72,5.21 -3.17,3.4 z m 20.86,-26.24 c -0.67,-0.39 -0.59,-0.91 0.6,-3.84 4.85,-11.93 3.46,-17.35 -7.4,-28.82 -8.42,-8.89 -9.79,-11.51 -7.14,-13.74 2.25,-1.89 6.65,0.59 4.85,2.74 -0.68,0.81 -0.68,0.81 -0.23,2.2 0.76,2.34 1.11,2.81 4.99,6.8 9.34,9.59 11.88,14.73 11.04,22.33 -0.76,6.89 -4.45,13.65 -6.72,12.33 z m -20.97,-7.8 c -4.19,-0.92 -5.06,-1.87 -4.09,-4.46 2.35,-6.24 11.32,-9.19 20.67,-6.8 5.96,1.53 6.02,3.27 0.22,7.16 -6.01,4.04 -11.25,5.31 -16.8,4.09 z m 35.71,-29.23 c -0.64,-0.7 -0.37,-1.76 1.56,-6.17 0.77,-1.76 1.6,-3.74 1.84,-4.4 2.42,-6.65 1.29,-14.29 -3.65,-24.61 -1.08,-2.26 -2.24,-4.87 -2.57,-5.82 -0.6,-1.72 -0.6,-1.72 -2.35,-1.85 -2.09,-0.16 -2.44,-0.41 -3.14,-2.28 -1.83,-4.89 4.27,-7.76 6.33,-2.97 0.52,1.22 0.54,1.38 0.16,1.79 -0.95,1.05 -0.4,2.82 2.09,6.63 6.68,10.23 8.55,17.13 7.17,26.47 -1.01,6.86 -5.68,15.16 -7.43,13.22 z m -2.38,-14.62 c -10.91,-5.67 -15.33,-11.37 -14.82,-19.11 0.29,-4.36 0.55,-4.48 5.82,-2.54 7.46,2.74 12.82,10.97 12.84,19.69 0.01,3.84 -0.11,3.9 -3.84,1.96 z m -107.43,105.5 c 0.38,-0.25 2.04,-2.25 3.7,-4.45 1.66,-2.2 4.01,-5.31 5.23,-6.91 3.15,-4.14 4.99,-6.74 8.61,-12.17 4.23,-6.35 11.66,-18.81 13.97,-23.42 0.69,-1.38 2.9,-5.57 4.92,-9.3 2.01,-3.73 5.14,-9.63 6.94,-13.1 7.95,-15.31 10.61,-19.99 27.03,-47.59 8.39,-14.1 10.14,-16.91 15.86,-25.53 3.74,-5.64 4.75,-7.98 3.24,-7.52 -0.56,0.17 -17.77,11.6 -25.92,17.21 -2.3,1.58 -5.93,4.04 -8.07,5.47 -2.14,1.42 -7.64,5.14 -12.23,8.25 -4.58,3.11 -12.32,8.3 -17.2,11.52 -4.87,3.22 -9.88,6.55 -11.11,7.4 -1.24,0.85 -5.14,3.46 -8.68,5.8 -11.61,7.69 -27.67,19.96 -32.09,24.54 -5.13,5.31 -8.92,10.97 -10.42,15.57 -2.71,8.3 -1.83,12.84 5.63,28.97 1.31,2.84 2.9,6.34 3.54,7.78 1.49,3.39 0.87,3.61 7.38,-2.69 7.38,-7.15 15.92,-14.88 16.43,-14.88 1.32,0 -2.72,5.27 -16.82,21.9 -3.41,4.02 -4.49,8.54 -2.81,11.69 0.71,1.32 16.55,-14.49 31.81,-31.75 6.54,-7.39 19.35,-24.41 23.39,-31.08 1.63,-2.68 1.8,-2.07 0.35,1.22 -0.6,1.37 -1.43,3.32 -1.84,4.34 -0.67,1.67 -4.49,8.73 -8.69,16.06 -0.86,1.5 -3.02,5.28 -4.8,8.41 -1.78,3.13 -4.91,8.61 -6.95,12.17 -2.04,3.57 -4.01,7.02 -4.38,7.67 -0.37,0.65 -2.36,3.75 -4.42,6.88 -5.34,8.11 -5.81,10.28 -1.6,7.53 z m -19.88,-35.04 c -4.08,-2.49 -4.47,-8.04 -1.09,-15.6 3.19,-7.13 7.07,-4.57 7.82,5.15 0.47,6.13 -3.55,12.39 -6.73,10.45 z m -8.69,-17.86 c -2.3,-5.51 7.21,-11.15 18.37,-10.88 3,0.07 5.93,0.02 6.51,-0.1 0.65,-0.14 1.51,-0.13 2.25,0.04 0.65,0.15 2.28,0.35 3.62,0.44 2.72,0.19 3.86,0.75 4,1.96 0.22,1.85 -5.81,1.64 -6.91,-0.24 -0.12,-0.2 -0.51,-0.36 -0.87,-0.36 -0.36,0 -1.08,-0.18 -1.61,-0.4 -0.93,-0.39 -0.97,-0.38 -1.88,0.42 -0.92,0.81 -1.26,0.86 -2.58,0.38 -1.09,-0.39 2.48,1.76 5.03,3.02 5.52,2.74 10.15,2.86 14.6,0.39 3.08,-1.71 4.92,-0.57 2.82,1.76 -4.26,4.71 -10.72,4.68 -20.45,-0.12 -10.6,-5.22 -15.48,-4.41 -21.04,3.46 -0.96,1.36 -1.36,1.41 -1.86,0.21 z m 32.27,-15.39 c -1.72,-9.19 3.11,-19.79 9.78,-21.44 10.5,-2.59 4.14,16.2 -7.32,21.62 -2.09,0.99 -2.24,0.98 -2.46,-0.18 z m 21.25,-11.37 c -1.87,-1.87 2.51,-8.46 7.26,-10.92 7.91,-4.1 19.48,-1.46 14.27,3.26 -0.52,0.47 -0.91,0.49 -6.86,0.35 -8.11,-0.2 -9.2,0.28 -12.23,5.36 -1.11,1.87 -1.9,2.5 -2.45,1.95 z m 12.25,-16.73 c -1.24,-0.67 -1.31,-1.57 -0.3,-4.09 0.43,-1.08 1.05,-2.85 1.37,-3.92 1.9,-6.4 7.74,-10.61 12.77,-9.21 2.91,0.81 1.55,8 -2.26,11.96 -3.12,3.24 -9.73,6.25 -11.57,5.26 z m -70.84,80.31 c -0.13,-2.59 -0.65,-2.87 -6.56,-3.62 -2.47,-0.31 -5.97,-0.85 -7.79,-1.2 -4.3,-0.81 -12.19,-2.46 -12.7,-2.65 -0.87,-0.33 -6.73,-1.42 -6.86,-1.28 -0.46,0.46 -0.32,4.3 0.16,4.56 1.47,0.79 22.14,4.55 28.66,5.21 5.15,0.53 5.17,0.52 5.09,-1.02 z m -2.93,-8.25 c -0.34,-2.14 -2.12,-4.13 -4.36,-4.88 -2.51,-0.84 -2.46,-0.77 -1.54,-2.59 2.5,-4.95 1.63,-5.78 -8.17,-7.87 -1.82,-0.39 -5.96,-1.36 -9.2,-2.15 -7.38,-1.81 -6.71,-2.32 -7.21,5.52 -0.47,7.38 -0.79,6.81 4.46,8.13 10.99,2.76 26.21,5.02 26.02,3.85 z m -62.36,-75.34 c 5.48,-8.79 9.57,-11.39 15.66,-9.97 2.16,0.5 4.07,1.36 5.17,2.31 2.14,1.85 2.85,-4.76 1.07,-9.86 -1.83,-5.24 -3.22,-13.51 -2.85,-16.92 0.72,-6.52 4.14,-14.71 7.76,-18.53 0.55,-0.58 1.57,-1.77 2.26,-2.65 0.69,-0.87 1.82,-2.13 2.5,-2.8 3.37,-3.3 8.22,-9.67 9.63,-12.65 2.29,-4.84 1.69,-7.09 -1.16,-4.37 -1.07,1.02 -3.25,3.03 -4.85,4.47 -17.27,15.5 -21.83,22.15 -23.44,34.25 -0.7,5.24 1.79,15.08 5.62,22.2 1.79,3.33 1.27,4.2 -1.44,2.4 -1.91,-1.26 -7.32,-8 -7.32,-9.11 0,-2.64 -5.67,2.07 -8.02,6.66 -2.17,4.24 -3.89,14.09 -2.97,16.99 0.28,0.89 0.43,0.74 2.39,-2.41 z m 113.73,-9.13 c 2.28,-1.56 6.37,-4.3 9.1,-6.08 13.81,-9.01 22.58,-14.69 25.52,-16.56 1.79,-1.14 5.05,-3.21 7.23,-4.6 6.72,-4.3 16.68,-10.46 20.7,-12.81 7.43,-4.35 7.42,-4.31 1.26,-6.72 -6.41,-2.5 -12.26,-6.15 -14.39,-8.98 -4.18,-5.54 -5.08,-8.6 -5.72,-19.59 -0.31,-5.27 -0.14,-5.18 -3.84,-1.91 -15.75,13.93 -22.62,15.19 -35.68,6.56 -2.96,-1.96 -2.66,-2.18 -2.94,2.13 -0.26,4.01 -1.03,9.05 -2.04,13.32 -0.9,3.84 -0.95,7.76 -0.14,12.04 2.6,13.81 -0.08,23.94 -9.4,35.53 -0.91,1.13 -1.65,2.27 -1.65,2.52 0,1.43 6.18,7.99 7.53,7.99 0.18,0 2.19,-1.28 4.47,-2.84 z m -24.82,-0.63 c 13.16,-8.32 20.24,-19.99 20.68,-34.1 0.3,-9.68 -1.23,-11.8 -2.3,-3.17 -1.81,14.68 -4.73,20.41 -17.19,33.72 -1.9,2.03 -3.46,3.85 -3.46,4.03 0,0.57 0.89,0.38 2.26,-0.49 z m -60.73,-66.68 c 2.52,-1.83 10.01,-9.88 10.11,-10.87 0.03,-0.33 0.06,-4.59 0.07,-9.47 0.01,-14.39 1.92,-19.2 12.22,-30.81 6.98,-7.86 11.57,-14.95 11.02,-17.04 -0.31,-1.17 -1.01,-0.57 -5.52,4.68 -1.29,1.51 -5.95,6.27 -10.34,10.58 -11.6,11.39 -14.14,14.39 -17.91,21.2 -4.43,8.01 -5.51,16.61 -3.37,26.9 1.08,5.2 1.84,6.18 3.72,4.82 z m 112.44,-6.96 c 12.74,-4.69 25.62,-19.46 30.7,-35.21 1.1,-3.4 1.04,-3.34 2.62,-2.84 2.84,0.91 4.71,-1.32 7.85,-9.36 3.92,-10.02 3.61,-16.77 -0.77,-16.77 -1.05,0 -2.31,1.95 -4.02,6.26 -1.81,4.54 -2.52,4.35 -2.52,-0.67 0,-10.08 -0.61,-11.49 -6.95,-16.09 -8.59,-6.23 -12.28,-10.82 -15.8,-19.67 -0.61,-1.53 -1.42,-3.47 -1.8,-4.3 -0.79,-1.74 -0.79,-1.74 0.69,-6.94 1.83,-6.46 3,-14.02 2,-13.03 -0.14,0.14 -0.87,3.09 -0.95,3.83 -0.02,0.18 -0.13,0.33 -0.24,0.33 -0.11,0 -0.25,-0.15 -0.32,-0.33 -0.07,-0.18 -0.21,0.15 -0.32,0.73 -0.65,3.38 -3.44,10.18 -5.11,12.47 -1.01,1.39 -2.69,1.67 -9.79,1.67 -9.18,0 -11.83,1.17 -16.49,7.32 -3.62,4.77 -5.58,8.84 -7.53,15.7 -1.43,5.02 -1.45,4.66 0.22,5.06 6.59,1.57 15.28,5.77 15.28,7.38 0,1.64 -3.88,0.81 -13.14,-2.8 -3.05,-1.19 -3.89,-1.36 -4.2,-0.86 -0.88,1.42 -3.28,9.58 -3.29,11.17 -0.01,2.21 6.49,3.48 13.22,2.58 5.41,-0.72 5.9,0.2 1.32,2.49 -5.21,2.6 -9.27,3.1 -14.5,1.76 -1.35,-0.35 -2.5,-0.58 -2.54,-0.53 -0.05,0.05 -0.83,1.35 -1.74,2.88 -0.91,1.53 -2.67,4.29 -3.91,6.14 -2.7,4.02 -2.21,7.36 2.46,16.74 2.31,4.64 7.41,11.06 11.49,14.47 12.56,10.48 20.19,13.31 28.05,10.42 z m -9.14,-10.86 c -4.11,-1.11 -5.64,-2.12 -9.06,-5.99 -3.36,-3.8 -3.38,-3.68 0.74,-5.3 6.04,-2.38 14.88,-2.95 18.52,-1.19 0.8,0.39 2.11,0.84 2.9,1 2.44,0.51 3.22,1.59 2.35,3.23 -2.82,5.29 -10.74,9.52 -15.45,8.25 z m 20.11,-38.47 c -3.63,-0.99 -9.64,-3.8 -9.64,-4.51 0,-0.56 3.17,-0.83 6.11,-0.52 5.07,0.53 8.15,0.24 11.15,-1.04 7.19,-3.07 8.99,-2.07 4.51,2.52 -3.8,3.89 -7.21,4.88 -12.12,3.55 z m -11.83,-14.22 c -0.74,-1.23 2.38,-4.42 6.03,-6.17 10.41,-4.99 16.82,-4.7 22.49,1 2.37,2.39 1.26,2.99 -2.39,1.29 -4.33,-2.02 -7.68,-1.75 -16.41,1.36 -6.46,2.3 -9.4,3.06 -9.73,2.52 z m 73.65,56.82 c 1.81,-4.22 2.16,-3.31 -3.87,-9.99 -2.94,-3.25 -5.95,-7.02 -8.84,-11.08 -2.85,-4 -3.2,-4.41 -3.2,-3.79 0,5.66 3.82,14.26 10.57,23.76 3.65,5.14 3.61,5.13 5.34,1.09 z m -152.72,-1.92 c 10.44,-5.89 26.01,-19.8 25.31,-22.61 -0.23,-0.92 -0.68,-0.79 -2.01,0.59 -1.49,1.54 -10.32,9.14 -16.39,14.1 -5.57,4.56 -9.26,7.9 -9.26,8.39 0,0.58 0.77,0.43 2.36,-0.47 z m 156.65,-12.17 c -0.96,-11.66 -2.7,-15.75 -10.71,-25.1 -1.31,-1.53 -3.79,-4.59 -5.51,-6.81 -4.28,-5.51 -4.04,-5.51 -3.49,0.01 0.91,9.15 2.41,13.58 6.95,20.56 2.04,3.14 12.58,15.35 12.94,15 0.06,-0.06 -0.02,-1.71 -0.18,-3.65 z m -159.58,-10.32 c 16.53,-9.33 27.42,-19.7 31.94,-30.44 2.09,-4.96 0.96,-4.28 -3.79,2.29 -4.69,6.48 -10.33,11.89 -21.89,21.02 -4.45,3.51 -8.6,7.19 -8.6,7.62 0,0.55 0.79,0.39 2.35,-0.49 z m 39.19,-14.44 c 6,-6.82 11.1,-27.44 5.54,-22.41 -0.93,0.84 -7.65,20.48 -7.65,22.35 0,1.74 0.62,1.76 2.11,0.06 z m 9.35,-26.8 c 0.12,-0.11 0.96,-2.44 1.88,-5.19 1.95,-5.85 3.33,-9.17 5.48,-13.22 2.12,-4.01 2.03,-4.73 -0.37,-2.89 -3.72,2.84 -10.96,17.33 -10.45,20.91 0.11,0.79 2.7,1.09 3.46,0.4 z"/></g></svg>